<mxfile host="app.diagrams.net" modified="2023-01-13T09:31:44.660Z" agent="5.0 (Macintosh; Intel Mac OS X 10_15_7) AppleWebKit/537.36 (KHTML, like Gecko) Chrome/108.0.0.0 Safari/537.36" etag="kRW7XT-VViPRpXdH7NZE" version="20.8.3" type="github">
  <diagram id="IvWxrmxaSUYdP_TkbN_O" name="Page-1">
    <mxGraphModel dx="2797" dy="1851" grid="1" gridSize="10" guides="1" tooltips="1" connect="1" arrows="1" fold="1" page="1" pageScale="1" pageWidth="827" pageHeight="1169" math="0" shadow="0">
      <root>
        <mxCell id="0" />
        <mxCell id="1" parent="0" />
        <mxCell id="14DXW3Pkvmna8Q2ftDXT-10" value="System" style="swimlane;fontStyle=0;childLayout=stackLayout;horizontal=1;startSize=26;fillColor=none;horizontalStack=0;resizeParent=1;resizeParentMax=0;resizeLast=0;collapsible=1;marginBottom=0;" parent="1" vertex="1">
          <mxGeometry x="40" y="260" width="570" height="1690" as="geometry" />
        </mxCell>
        <mxCell id="14DXW3Pkvmna8Q2ftDXT-11" value="+ System()" style="text;strokeColor=none;fillColor=none;align=left;verticalAlign=top;spacingLeft=4;spacingRight=4;overflow=hidden;rotatable=0;points=[[0,0.5],[1,0.5]];portConstraint=eastwest;" parent="14DXW3Pkvmna8Q2ftDXT-10" vertex="1">
          <mxGeometry y="26" width="570" height="26" as="geometry" />
        </mxCell>
        <mxCell id="14DXW3Pkvmna8Q2ftDXT-12" value="+ string trimString (string &amp;str)" style="text;strokeColor=none;fillColor=none;align=left;verticalAlign=top;spacingLeft=4;spacingRight=4;overflow=hidden;rotatable=0;points=[[0,0.5],[1,0.5]];portConstraint=eastwest;" parent="14DXW3Pkvmna8Q2ftDXT-10" vertex="1">
          <mxGeometry y="52" width="570" height="26" as="geometry" />
        </mxCell>
        <mxCell id="14DXW3Pkvmna8Q2ftDXT-13" value="+ vector &lt;string&gt; splitStr (string &amp;str, char del)&#xa;&#xa;+ bool isValidNum(std::string &amp;inputStr) &#xa;&#xa;+ bool isDouble(std::string &amp;inputStr)&#xa;&#xa;+ bool isValidPhoneNum(std::string &amp;phoneNum);&#xa;&#xa;+ bool isValidPassword(std::string &amp;password);&#xa;&#xa;+ bool isValidUserName(std::string &amp;username);&#xa;&#xa;+ bool isValidFullname(std::string &amp;fullname);&#xa;&#xa;+ bool isValidCredit(Member *mem, House *house);&#xa;&#xa;+ bool isValidScore(Member *mem, House *house);&#xa;&#xa;+ bool isValidDate(std::string date);&#xa;&#xa;+ bool isRightDateOrder(Date* start, Date *end);&#xa;&#xa;+ int menuChoice(int start, int end);&#xa;&#xa;+ void guestShowHouse();&#xa;&#xa;+ void mainMenu();&#xa;&#xa;+ void guestMenu();&#xa;&#xa;+ void adminMenu();&#xa;&#xa;+ void adminLoginMenu();&#xa;&#xa;+ void adminViewMemberMenu();&#xa;&#xa;+ void adminViewHouseMenu();&#xa;&#xa;+ void loginMemMenu();&#xa;&#xa;+ void memberMenu();&#xa;&#xa;+ void houseForRentMenu();&#xa;&#xa;+ void rateTenantMenu(int leaveID);&#xa;&#xa;+ bool getInfoListHouseMenu();&#xa;&#xa;+ bool enterHouseInfo();&#xa;&#xa;+ void validHouseMenu(Date *start, Date *end, std::string location);&#xa;&#xa;+ void searchValidHouseMenu();&#xa;&#xa;+ bool memRequestHouse(Date *startDate, Date *endDate, int houseId);&#xa;&#xa;+ void viewRequestMenu();&#xa;&#xa;+ void actionRequestMenu(int requestID);&#xa;&#xa;+ void showRentedHouse();&#xa;&#xa;+ void viewUnratedTenantList();&#xa;&#xa;+ bool isValidHouses(Date *start, Date *end, Member *mem, House *house, std::string location);&#xa;&#xa;+ bool getValidHouses(Date *start, Date *end, std::string location);&#xa;&#xa;+ bool deleteInRentHouse();&#xa;&#xa;+ void inputHouseToSys();&#xa;&#xa;+ void inputAdminToSys();&#xa;&#xa;+ void inputMemHouseToSys();&#xa;&#xa;+ void inputHouseLstToSys();&#xa;&#xa;+ void inputMemberToSys();&#xa;&#xa;+ void inputRatingTenantToSys();&#xa;&#xa;+ void inputRatingHouseToSys();&#xa;&#xa;+ void inputRequestToSys();&#xa;&#xa;+ void inputOccupierToSys();&#xa;&#xa;+ void inputUnratedToSys();&#xa;&#xa;+ void outputOccupierToFile();&#xa;&#xa;+ void outputAdminToFile();&#xa;&#xa;+ void outputUnratedToFile();&#xa;&#xa;+ void outputRequestToFile();&#xa;&#xa;+ void outputRatingTenantToFile();&#xa;&#xa;+ void outputRatingHouseToFile();&#xa;&#xa;+ void outputHouseToFile();&#xa;&#xa;+ void outputHouseLstToFile();&#xa;&#xa;+ void outputMemberToFile();&#xa;&#xa;+ void registerMember();&#xa; &#xa;+ bool loginMember(std::string username, std::string password);&#xa; &#xa;+ Date *stringToDate(std::string &amp;date);&#xa;" style="text;strokeColor=none;fillColor=none;align=left;verticalAlign=top;spacingLeft=4;spacingRight=4;overflow=hidden;rotatable=0;points=[[0,0.5],[1,0.5]];portConstraint=eastwest;" parent="14DXW3Pkvmna8Q2ftDXT-10" vertex="1">
          <mxGeometry y="78" width="570" height="1612" as="geometry" />
        </mxCell>
        <mxCell id="14DXW3Pkvmna8Q2ftDXT-19" value="User" style="swimlane;fontStyle=1;align=center;verticalAlign=top;childLayout=stackLayout;horizontal=1;startSize=26;horizontalStack=0;resizeParent=1;resizeParentMax=0;resizeLast=0;collapsible=1;marginBottom=0;fontColor=none;html=1;" parent="1" vertex="1">
          <mxGeometry x="940" y="260" width="250" height="108" as="geometry" />
        </mxCell>
        <mxCell id="14DXW3Pkvmna8Q2ftDXT-20" value="# username: string&lt;br&gt;# password: string" style="text;strokeColor=none;fillColor=none;align=left;verticalAlign=top;spacingLeft=4;spacingRight=4;overflow=hidden;rotatable=0;points=[[0,0.5],[1,0.5]];portConstraint=eastwest;fontColor=none;html=1;" parent="14DXW3Pkvmna8Q2ftDXT-19" vertex="1">
          <mxGeometry y="26" width="250" height="44" as="geometry" />
        </mxCell>
        <mxCell id="14DXW3Pkvmna8Q2ftDXT-21" value="" style="line;strokeWidth=1;fillColor=none;align=left;verticalAlign=middle;spacingTop=-1;spacingLeft=3;spacingRight=3;rotatable=0;labelPosition=right;points=[];portConstraint=eastwest;strokeColor=inherit;fontColor=none;html=1;" parent="14DXW3Pkvmna8Q2ftDXT-19" vertex="1">
          <mxGeometry y="70" width="250" height="8" as="geometry" />
        </mxCell>
        <mxCell id="14DXW3Pkvmna8Q2ftDXT-22" value="+ User ( string username, string password)" style="text;strokeColor=none;fillColor=none;align=left;verticalAlign=top;spacingLeft=4;spacingRight=4;overflow=hidden;rotatable=0;points=[[0,0.5],[1,0.5]];portConstraint=eastwest;fontColor=none;html=1;" parent="14DXW3Pkvmna8Q2ftDXT-19" vertex="1">
          <mxGeometry y="78" width="250" height="30" as="geometry" />
        </mxCell>
        <mxCell id="14DXW3Pkvmna8Q2ftDXT-30" value="" style="endArrow=block;endSize=16;endFill=0;html=1;rounded=0;fontColor=none;" parent="1" source="14DXW3Pkvmna8Q2ftDXT-32" target="14DXW3Pkvmna8Q2ftDXT-19" edge="1">
          <mxGeometry width="160" relative="1" as="geometry">
            <mxPoint x="840" y="1432.71" as="sourcePoint" />
            <mxPoint x="990" y="1432.71" as="targetPoint" />
          </mxGeometry>
        </mxCell>
        <mxCell id="14DXW3Pkvmna8Q2ftDXT-32" value="Admin" style="swimlane;fontStyle=0;childLayout=stackLayout;horizontal=1;startSize=26;fillColor=none;horizontalStack=0;resizeParent=1;resizeParentMax=0;resizeLast=0;collapsible=1;marginBottom=0;fontColor=none;html=1;" parent="1" vertex="1">
          <mxGeometry x="700" y="480" width="300" height="58" as="geometry" />
        </mxCell>
        <mxCell id="14DXW3Pkvmna8Q2ftDXT-33" value="+ Admin ( string username, string password)" style="text;strokeColor=none;fillColor=none;align=left;verticalAlign=top;spacingLeft=4;spacingRight=4;overflow=hidden;rotatable=0;points=[[0,0.5],[1,0.5]];portConstraint=eastwest;fontColor=none;html=1;" parent="14DXW3Pkvmna8Q2ftDXT-32" vertex="1">
          <mxGeometry y="26" width="300" height="32" as="geometry" />
        </mxCell>
        <mxCell id="14DXW3Pkvmna8Q2ftDXT-40" value="" style="endArrow=block;endSize=16;endFill=0;html=1;rounded=0;fontColor=none;" parent="1" source="14DXW3Pkvmna8Q2ftDXT-41" target="14DXW3Pkvmna8Q2ftDXT-19" edge="1">
          <mxGeometry x="0.0014" width="160" relative="1" as="geometry">
            <mxPoint x="1184.26" y="1420.8799999999999" as="sourcePoint" />
            <mxPoint x="1260" y="1370" as="targetPoint" />
            <mxPoint as="offset" />
          </mxGeometry>
        </mxCell>
        <mxCell id="14DXW3Pkvmna8Q2ftDXT-41" value="&lt;span style=&quot;font-weight: normal;&quot;&gt;Member&lt;/span&gt;" style="swimlane;fontStyle=1;align=center;verticalAlign=top;childLayout=stackLayout;horizontal=1;startSize=26;horizontalStack=0;resizeParent=1;resizeParentMax=0;resizeLast=0;collapsible=1;marginBottom=0;fontColor=none;html=1;" parent="1" vertex="1">
          <mxGeometry x="1120" y="480" width="390" height="1030" as="geometry" />
        </mxCell>
        <mxCell id="14DXW3Pkvmna8Q2ftDXT-42" value="- memberID: string&lt;br&gt;- fullName: string&lt;br&gt;- phoneNum: string&lt;br&gt;- credit: double&lt;br&gt;- score: double&lt;br&gt;- location: string&lt;br&gt;- vector&amp;lt;Review *&amp;gt; tenantReviewList&lt;br&gt;- vector&amp;lt;Request *&amp;gt; requestList&lt;br&gt;- vector&amp;lt;Tenant *&amp;gt; tenantList" style="text;strokeColor=none;fillColor=none;align=left;verticalAlign=top;spacingLeft=4;spacingRight=4;overflow=hidden;rotatable=0;points=[[0,0.5],[1,0.5]];portConstraint=eastwest;fontColor=none;html=1;" parent="14DXW3Pkvmna8Q2ftDXT-41" vertex="1">
          <mxGeometry y="26" width="390" height="144" as="geometry" />
        </mxCell>
        <mxCell id="14DXW3Pkvmna8Q2ftDXT-43" value="" style="line;strokeWidth=1;fillColor=none;align=left;verticalAlign=middle;spacingTop=-1;spacingLeft=3;spacingRight=3;rotatable=0;labelPosition=right;points=[];portConstraint=eastwest;strokeColor=inherit;fontColor=none;html=1;" parent="14DXW3Pkvmna8Q2ftDXT-41" vertex="1">
          <mxGeometry y="170" width="390" height="18" as="geometry" />
        </mxCell>
        <mxCell id="14DXW3Pkvmna8Q2ftDXT-44" value="+ Member (string username, string password, string memberId&lt;br&gt;,string fullName, string phoneNum&lt;br&gt;, double credit, double score, string location)&lt;br&gt;&lt;br&gt;&lt;div&gt;+ bool addHouse(Date *startDate, Date *endDate&lt;/div&gt;&lt;div&gt;&lt;span style=&quot;background-color: initial;&quot;&gt;, int consumingPointsPerDay, double scores, string status)&lt;/span&gt;&lt;/div&gt;&lt;div&gt;&lt;span style=&quot;background-color: initial;&quot;&gt;&lt;br&gt;&lt;/span&gt;&lt;/div&gt;&lt;div&gt;+ bool deleteHouse()&lt;/div&gt;&lt;div&gt;&lt;br&gt;&lt;/div&gt;&lt;div&gt;+ int viewAllRequest()&lt;/div&gt;&lt;div&gt;&lt;br&gt;&lt;/div&gt;&lt;div&gt;+ bool cancelRequest(int ID)&lt;/div&gt;&lt;div&gt;&lt;br&gt;&lt;/div&gt;&lt;div&gt;&amp;nbsp;+ void showAccountInfo()&lt;/div&gt;&lt;div&gt;&lt;br&gt;&lt;/div&gt;&lt;div&gt;&amp;nbsp;+ double getRatingScore()&lt;/div&gt;&lt;div&gt;&lt;br&gt;&lt;/div&gt;&lt;div&gt;&amp;nbsp;+ bool minusCredit(double creditPoint)&lt;/div&gt;&lt;div&gt;&lt;br&gt;&lt;/div&gt;&lt;div&gt;&amp;nbsp;+ bool addCredit(double creditPoint)&lt;/div&gt;&lt;div&gt;&lt;br&gt;&lt;/div&gt;&lt;div&gt;&amp;nbsp;+ bool createHouse(House *house)&lt;/div&gt;&lt;div&gt;&lt;br&gt;&lt;/div&gt;&lt;div&gt;&amp;nbsp;+ Request requestHouse(Date *start, Date *end)&amp;nbsp;&lt;/div&gt;&lt;div&gt;&lt;br&gt;&lt;/div&gt;&lt;div&gt;&amp;nbsp;+ void showAllAvailableHouse()&lt;/div&gt;&lt;div&gt;&lt;br&gt;&lt;/div&gt;&lt;div&gt;&amp;nbsp;+ bool acceptRequest(int ID)&lt;/div&gt;&lt;div&gt;&lt;br&gt;&lt;/div&gt;&lt;div&gt;&amp;nbsp;+ bool declineRequest(int ID)&lt;/div&gt;&lt;div&gt;&lt;br&gt;&lt;/div&gt;&lt;div&gt;&amp;nbsp;+ void reviewHouse(House *occupyHouse, int score, string comment)&lt;/div&gt;&lt;div&gt;&lt;br&gt;&lt;/div&gt;&lt;div&gt;&lt;br&gt;&lt;/div&gt;&lt;div&gt;&amp;nbsp;+ void viewTenant()&lt;/div&gt;&lt;div&gt;&lt;br&gt;&lt;/div&gt;&lt;div&gt;&amp;nbsp;+ bool reviewTenant(int rateId, int score, string comment)&lt;/div&gt;&lt;div&gt;&lt;br&gt;&lt;/div&gt;&lt;div&gt;&lt;br&gt;&lt;/div&gt;&lt;div&gt;&amp;nbsp;+ void showReview()&lt;/div&gt;&lt;div&gt;&lt;br&gt;&lt;/div&gt;&lt;div&gt;&amp;nbsp;+ bool checkout(int leaveId)&lt;/div&gt;&lt;div&gt;&lt;br&gt;&lt;/div&gt;&lt;div&gt;&amp;nbsp;+ bool viewMemberOccupyList()&lt;/div&gt;&lt;div&gt;&lt;br&gt;&lt;/div&gt;&lt;div&gt;&amp;nbsp;+ bool viewUnratedList()&lt;/div&gt;&lt;div&gt;&lt;span style=&quot;background-color: initial;&quot;&gt;&lt;br&gt;&lt;/span&gt;&lt;/div&gt;&lt;div&gt;&lt;span style=&quot;background-color: initial;&quot;&gt;&amp;nbsp;+&amp;nbsp; void tenantLeaveHouse()&lt;/span&gt;&lt;br&gt;&lt;/div&gt;&lt;div&gt;&lt;br&gt;&lt;/div&gt;&lt;div&gt;&amp;nbsp;+ void getHouseIndex(int houseID)&lt;/div&gt;&lt;div&gt;&lt;br&gt;&lt;/div&gt;&lt;div&gt;&amp;nbsp;+ void cancelRequest()&lt;/div&gt;&lt;div&gt;&amp;nbsp;&lt;/div&gt;&lt;div&gt;&amp;nbsp;+ friend class House&lt;/div&gt;&lt;div&gt;&lt;br&gt;&lt;/div&gt;&lt;div&gt;&amp;nbsp;+ friend class System&lt;/div&gt;&lt;div&gt;&lt;br&gt;&lt;/div&gt;" style="text;strokeColor=none;fillColor=none;align=left;verticalAlign=top;spacingLeft=4;spacingRight=4;overflow=hidden;rotatable=0;points=[[0,0.5],[1,0.5]];portConstraint=eastwest;fontColor=none;html=1;" parent="14DXW3Pkvmna8Q2ftDXT-41" vertex="1">
          <mxGeometry y="188" width="390" height="842" as="geometry" />
        </mxCell>
        <mxCell id="MLoxchNlt-xzZ0AAmb1T-4" value="rent" style="endArrow=block;endSize=16;endFill=1;html=1;rounded=0;fontColor=none;edgeStyle=orthogonalEdgeStyle;elbow=horizontal;" edge="1" parent="14DXW3Pkvmna8Q2ftDXT-41" source="14DXW3Pkvmna8Q2ftDXT-44" target="14DXW3Pkvmna8Q2ftDXT-44">
          <mxGeometry width="160" relative="1" as="geometry">
            <mxPoint x="570" y="1230" as="sourcePoint" />
            <mxPoint x="230" y="1130.0015068493153" as="targetPoint" />
            <Array as="points">
              <mxPoint x="70" y="1150" />
            </Array>
          </mxGeometry>
        </mxCell>
        <mxCell id="14DXW3Pkvmna8Q2ftDXT-50" value="&lt;span style=&quot;font-weight: normal;&quot;&gt;OccupyHouse&lt;/span&gt;" style="swimlane;fontStyle=1;align=center;verticalAlign=top;childLayout=stackLayout;horizontal=1;startSize=26;horizontalStack=0;resizeParent=1;resizeParentMax=0;resizeLast=0;collapsible=1;marginBottom=0;fontColor=none;html=1;" parent="1" vertex="1">
          <mxGeometry x="1890" y="140" width="220" height="260" as="geometry" />
        </mxCell>
        <mxCell id="14DXW3Pkvmna8Q2ftDXT-51" value="- startFromDate: *Date&lt;br&gt;&lt;br&gt;- toDate: *Date&lt;br&gt;&lt;br&gt;- tenant: *Member" style="text;strokeColor=none;fillColor=none;align=left;verticalAlign=top;spacingLeft=4;spacingRight=4;overflow=hidden;rotatable=0;points=[[0,0.5],[1,0.5]];portConstraint=eastwest;fontColor=none;html=1;" parent="14DXW3Pkvmna8Q2ftDXT-50" vertex="1">
          <mxGeometry y="26" width="220" height="94" as="geometry" />
        </mxCell>
        <mxCell id="14DXW3Pkvmna8Q2ftDXT-52" value="" style="line;strokeWidth=1;fillColor=none;align=left;verticalAlign=middle;spacingTop=-1;spacingLeft=3;spacingRight=3;rotatable=0;labelPosition=right;points=[];portConstraint=eastwest;strokeColor=inherit;fontColor=none;html=1;" parent="14DXW3Pkvmna8Q2ftDXT-50" vertex="1">
          <mxGeometry y="120" width="220" height="8" as="geometry" />
        </mxCell>
        <mxCell id="14DXW3Pkvmna8Q2ftDXT-53" value="+ OccupyHouse (Date *startFromDate&lt;br&gt;, Date *toDate, Member *tenant)&lt;br&gt;&lt;br&gt;+ friend class System;&lt;br&gt;&lt;br&gt;+ friend class House;&amp;nbsp;&lt;br&gt;&lt;br&gt;+ friend class Member;" style="text;strokeColor=none;fillColor=none;align=left;verticalAlign=top;spacingLeft=4;spacingRight=4;overflow=hidden;rotatable=0;points=[[0,0.5],[1,0.5]];portConstraint=eastwest;fontColor=none;html=1;" parent="14DXW3Pkvmna8Q2ftDXT-50" vertex="1">
          <mxGeometry y="128" width="220" height="132" as="geometry" />
        </mxCell>
        <mxCell id="14DXW3Pkvmna8Q2ftDXT-54" value="&lt;span style=&quot;font-weight: 400;&quot;&gt;Request&lt;/span&gt;" style="swimlane;fontStyle=1;align=center;verticalAlign=top;childLayout=stackLayout;horizontal=1;startSize=26;horizontalStack=0;resizeParent=1;resizeParentMax=0;resizeLast=0;collapsible=1;marginBottom=0;fontColor=none;html=1;" parent="1" vertex="1">
          <mxGeometry x="1530" y="1609" width="260" height="290" as="geometry" />
        </mxCell>
        <mxCell id="14DXW3Pkvmna8Q2ftDXT-55" value="- houseID: string;&lt;br&gt;&lt;br&gt;- requestStatus: string;&lt;br&gt;&lt;br&gt;- startDate: *Date;&lt;br&gt;&lt;br&gt;- endDate: *Date;&lt;br&gt;&lt;br&gt;- requestedByMember: *Member" style="text;strokeColor=none;fillColor=none;align=left;verticalAlign=top;spacingLeft=4;spacingRight=4;overflow=hidden;rotatable=0;points=[[0,0.5],[1,0.5]];portConstraint=eastwest;fontColor=none;html=1;" parent="14DXW3Pkvmna8Q2ftDXT-54" vertex="1">
          <mxGeometry y="26" width="260" height="144" as="geometry" />
        </mxCell>
        <mxCell id="14DXW3Pkvmna8Q2ftDXT-56" value="" style="line;strokeWidth=1;fillColor=none;align=left;verticalAlign=middle;spacingTop=-1;spacingLeft=3;spacingRight=3;rotatable=0;labelPosition=right;points=[];portConstraint=eastwest;strokeColor=inherit;fontColor=none;html=1;" parent="14DXW3Pkvmna8Q2ftDXT-54" vertex="1">
          <mxGeometry y="170" width="260" height="8" as="geometry" />
        </mxCell>
        <mxCell id="14DXW3Pkvmna8Q2ftDXT-57" value="+ Request (Date *startDate&lt;br&gt;, Date *endDate&lt;br&gt;, Member *requestedByMember, string status)&lt;br&gt;&lt;br&gt;+ friend class System&lt;br&gt;&lt;br&gt;+ friend class Member" style="text;strokeColor=none;fillColor=none;align=left;verticalAlign=top;spacingLeft=4;spacingRight=4;overflow=hidden;rotatable=0;points=[[0,0.5],[1,0.5]];portConstraint=eastwest;fontColor=none;html=1;" parent="14DXW3Pkvmna8Q2ftDXT-54" vertex="1">
          <mxGeometry y="178" width="260" height="112" as="geometry" />
        </mxCell>
        <mxCell id="14DXW3Pkvmna8Q2ftDXT-58" value="&lt;span style=&quot;font-weight: 400;&quot;&gt;Review&lt;/span&gt;" style="swimlane;fontStyle=1;align=center;verticalAlign=top;childLayout=stackLayout;horizontal=1;startSize=26;horizontalStack=0;resizeParent=1;resizeParentMax=0;resizeLast=0;collapsible=1;marginBottom=0;fontColor=none;html=1;" parent="1" vertex="1">
          <mxGeometry x="710" y="1300" width="280" height="280" as="geometry" />
        </mxCell>
        <mxCell id="14DXW3Pkvmna8Q2ftDXT-59" value="- comment: string&lt;br&gt;&lt;br&gt;- ratingScore: double&lt;br&gt;&lt;br&gt;- memberReview: *Member" style="text;strokeColor=none;fillColor=none;align=left;verticalAlign=top;spacingLeft=4;spacingRight=4;overflow=hidden;rotatable=0;points=[[0,0.5],[1,0.5]];portConstraint=eastwest;fontColor=none;html=1;" parent="14DXW3Pkvmna8Q2ftDXT-58" vertex="1">
          <mxGeometry y="26" width="280" height="94" as="geometry" />
        </mxCell>
        <mxCell id="14DXW3Pkvmna8Q2ftDXT-60" value="" style="line;strokeWidth=1;fillColor=none;align=left;verticalAlign=middle;spacingTop=-1;spacingLeft=3;spacingRight=3;rotatable=0;labelPosition=right;points=[];portConstraint=eastwest;strokeColor=inherit;fontColor=none;html=1;" parent="14DXW3Pkvmna8Q2ftDXT-58" vertex="1">
          <mxGeometry y="120" width="280" height="8" as="geometry" />
        </mxCell>
        <mxCell id="14DXW3Pkvmna8Q2ftDXT-61" value="+ Request (double ratingScore, string comment,&lt;br&gt;&lt;br&gt;, Member *memberReview)&lt;br&gt;&lt;br&gt;+ friend class System&lt;br&gt;&lt;br&gt;+ friend class Member&lt;br&gt;&lt;br&gt;+ friend class House" style="text;strokeColor=none;fillColor=none;align=left;verticalAlign=top;spacingLeft=4;spacingRight=4;overflow=hidden;rotatable=0;points=[[0,0.5],[1,0.5]];portConstraint=eastwest;fontColor=none;html=1;" parent="14DXW3Pkvmna8Q2ftDXT-58" vertex="1">
          <mxGeometry y="128" width="280" height="152" as="geometry" />
        </mxCell>
        <mxCell id="14DXW3Pkvmna8Q2ftDXT-62" value="&lt;span style=&quot;font-weight: 400;&quot;&gt;Tenant&lt;/span&gt;" style="swimlane;fontStyle=1;align=center;verticalAlign=top;childLayout=stackLayout;horizontal=1;startSize=26;horizontalStack=0;resizeParent=1;resizeParentMax=0;resizeLast=0;collapsible=1;marginBottom=0;fontColor=none;html=1;" parent="1" vertex="1">
          <mxGeometry x="1620" y="500" width="280" height="280" as="geometry" />
        </mxCell>
        <mxCell id="14DXW3Pkvmna8Q2ftDXT-63" value="- startFromDate: *Date&lt;br style=&quot;border-color: var(--border-color);&quot;&gt;&lt;br style=&quot;border-color: var(--border-color);&quot;&gt;- toDate: *Date&lt;br&gt;&lt;br&gt;- occupyHouse: *House" style="text;strokeColor=none;fillColor=none;align=left;verticalAlign=top;spacingLeft=4;spacingRight=4;overflow=hidden;rotatable=0;points=[[0,0.5],[1,0.5]];portConstraint=eastwest;fontColor=none;html=1;" parent="14DXW3Pkvmna8Q2ftDXT-62" vertex="1">
          <mxGeometry y="26" width="280" height="94" as="geometry" />
        </mxCell>
        <mxCell id="14DXW3Pkvmna8Q2ftDXT-64" value="" style="line;strokeWidth=1;fillColor=none;align=left;verticalAlign=middle;spacingTop=-1;spacingLeft=3;spacingRight=3;rotatable=0;labelPosition=right;points=[];portConstraint=eastwest;strokeColor=inherit;fontColor=none;html=1;" parent="14DXW3Pkvmna8Q2ftDXT-62" vertex="1">
          <mxGeometry y="120" width="280" height="8" as="geometry" />
        </mxCell>
        <mxCell id="14DXW3Pkvmna8Q2ftDXT-65" value="+ Tenant (Date *startFromDate&lt;br&gt;&lt;br style=&quot;border-color: var(--border-color);&quot;&gt;, Date *toDate, House *occupyHouse)&lt;br&gt;&lt;br&gt;+ friend class System&lt;br&gt;&lt;br&gt;+ friend class Member&lt;br&gt;&lt;br&gt;+ friend class House" style="text;strokeColor=none;fillColor=none;align=left;verticalAlign=top;spacingLeft=4;spacingRight=4;overflow=hidden;rotatable=0;points=[[0,0.5],[1,0.5]];portConstraint=eastwest;fontColor=none;html=1;" parent="14DXW3Pkvmna8Q2ftDXT-62" vertex="1">
          <mxGeometry y="128" width="280" height="152" as="geometry" />
        </mxCell>
        <mxCell id="14DXW3Pkvmna8Q2ftDXT-70" value="&lt;span style=&quot;font-weight: normal;&quot;&gt;House&lt;/span&gt;" style="swimlane;fontStyle=1;align=center;verticalAlign=top;childLayout=stackLayout;horizontal=1;startSize=26;horizontalStack=0;resizeParent=1;resizeParentMax=0;resizeLast=0;collapsible=1;marginBottom=0;fontColor=none;html=1;" parent="1" vertex="1">
          <mxGeometry x="1850" y="880" width="390" height="660" as="geometry" />
        </mxCell>
        <mxCell id="14DXW3Pkvmna8Q2ftDXT-71" value="- houseID: string&lt;br&gt;- houseDescription: string&lt;br&gt;- houseStatus: string&lt;br&gt;- location: string&lt;br&gt;- owner: *Member&lt;br&gt;- isAdded: bool&lt;br&gt;- startingDate: *Date&lt;br&gt;- endingDate: *Date&lt;br&gt;- consumingPointsPerDay: double&lt;br&gt;- minRating: double&lt;br&gt;- houseScores: double&lt;br&gt;- vector&amp;lt;Review *&amp;gt; listHouseReview&lt;br&gt;- vector&amp;lt;Request *&amp;gt; listHouseRequest&lt;br&gt;- vector&amp;lt;OccupyHouse *&amp;gt; listOccupyHouse&lt;br&gt;- vector&amp;lt;OccupyHouse *&amp;gt;unratedTenant&lt;br style=&quot;border-color: var(--border-color);&quot;&gt;&lt;span style=&quot;border-color: var(--border-color); color: rgba(0, 0, 0, 0); font-family: monospace; font-size: 0px;&quot;&gt;%&lt;/span&gt;&lt;br&gt;&lt;span style=&quot;color: rgba(0, 0, 0, 0); font-family: monospace; font-size: 0px;&quot;&gt;%3CmxGraphModel%3E%3Croot%3E%3CmxCell%20id%3D%220%22%2F%3E%3CmxCell%20id%3D%221%22%20parent%3D%220%22%2F%3E%3CmxCell%20id%3D%222%22%20value%3D%22Member%22%20style%3D%22swimlane%3BfontStyle%3D1%3Balign%3Dcenter%3BverticalAlign%3Dtop%3BchildLayout%3DstackLayout%3Bhorizontal%3D1%3BstartSize%3D26%3BhorizontalStack%3D0%3BresizeParent%3D1%3BresizeParentMax%3D0%3BresizeLast%3D0%3Bcollapsible%3D1%3BmarginBottom%3D0%3BfontColor%3Dnone%3Bhtml%3D1%3B%22%20vertex%3D%221%22%20parent%3D%221%22%3E%3CmxGeometry%20x%3D%221110%22%20y%3D%221360%22%20width%3D%22390%22%20height%3D%221030%22%20as%3D%22geometry%22%2F%3E%3C%2FmxCell%3E%3CmxCell%20id%3D%223%22%20value%3D%22-%20memberID%3A%20string%26lt%3Bbr%26gt%3B-%20fullName%3A%20string%26lt%3Bbr%26gt%3B-%20phoneNum%3A%20string%26lt%3Bbr%26gt%3B-%20credit%3A%20double%26lt%3Bbr%26gt%3B-%20score%3A%20double%26lt%3Bbr%26gt%3B-%20location%3A%20string%26lt%3Bbr%26gt%3B-%20vector%26amp%3Blt%3BReview%20*%26amp%3Bgt%3B%20tenantReviewList%26lt%3Bbr%26gt%3B-%20vector%26amp%3Blt%3BRequest%20*%26amp%3Bgt%3B%20requestList%26lt%3Bbr%26gt%3B-%20vector%26amp%3Blt%3BTenant%20*%26amp%3Bgt%3B%20tenantList%22%20style%3D%22text%3BstrokeColor%3Dnone%3BfillColor%3Dnone%3Balign%3Dleft%3BverticalAlign%3Dtop%3BspacingLeft%3D4%3BspacingRight%3D4%3Boverflow%3Dhidden%3Brotatable%3D0%3Bpoints%3D%5B%5B0%2C0.5%5D%2C%5B1%2C0.5%5D%5D%3BportConstraint%3Deastwest%3BfontColor%3Dnone%3Bhtml%3D1%3B%22%20vertex%3D%221%22%20parent%3D%222%22%3E%3CmxGeometry%20y%3D%2226%22%20width%3D%22390%22%20height%3D%22144%22%20as%3D%22geometry%22%2F%3E%3C%2FmxCell%3E%3CmxCell%20id%3D%224%22%20value%3D%22%22%20style%3D%22line%3BstrokeWidth%3D1%3BfillColor%3Dnone%3Balign%3Dleft%3BverticalAlign%3Dmiddle%3BspacingTop%3D-1%3BspacingLeft%3D3%3BspacingRight%3D3%3Brotatable%3D0%3BlabelPosition%3Dright%3Bpoints%3D%5B%5D%3BportConstraint%3Deastwest%3BstrokeColor%3Dinherit%3BfontColor%3Dnone%3Bhtml%3D1%3B%22%20vertex%3D%221%22%20parent%3D%222%22%3E%3CmxGeometry%20y%3D%22170%22%20width%3D%22390%22%20height%3D%2218%22%20as%3D%22geometry%22%2F%3E%3C%2FmxCell%3E%3CmxCell%20id%3D%225%22%20value%3D%22%2B%20Member%20(string%20username%2C%20string%20password%2C%20string%20memberId%26lt%3Bbr%26gt%3B%2Cstring%20fullName%2C%20string%20phoneNum%26lt%3Bbr%26gt%3B%2C%20double%20credit%2C%20double%20score%2C%20string%20location)%26lt%3Bbr%26gt%3B%26lt%3Bbr%26gt%3B%26lt%3Bdiv%26gt%3B%2B%20bool%20addHouse(Date%20*startDate%2C%20Date%20*endDate%26lt%3B%2Fdiv%26gt%3B%26lt%3Bdiv%26gt%3B%26lt%3Bspan%20style%3D%26quot%3Bbackground-color%3A%20initial%3B%26quot%3B%26gt%3B%2C%20int%20consumingPointsPerDay%2C%20double%20scores%2C%20string%20status)%26lt%3B%2Fspan%26gt%3B%26lt%3B%2Fdiv%26gt%3B%26lt%3Bdiv%26gt%3B%26lt%3Bspan%20style%3D%26quot%3Bbackground-color%3A%20initial%3B%26quot%3B%26gt%3B%26lt%3Bbr%26gt%3B%26lt%3B%2Fspan%26gt%3B%26lt%3B%2Fdiv%26gt%3B%26lt%3Bdiv%26gt%3B%2B%20bool%20deleteHouse()%26lt%3B%2Fdiv%26gt%3B%26lt%3Bdiv%26gt%3B%26lt%3Bbr%26gt%3B%26lt%3B%2Fdiv%26gt%3B%26lt%3Bdiv%26gt%3B%2B%20int%20viewAllRequest()%26lt%3B%2Fdiv%26gt%3B%26lt%3Bdiv%26gt%3B%26lt%3Bbr%26gt%3B%26lt%3B%2Fdiv%26gt%3B%26lt%3Bdiv%26gt%3B%2B%20bool%20cancelRequest(int%20ID)%26lt%3B%2Fdiv%26gt%3B%26lt%3Bdiv%26gt%3B%26lt%3Bbr%26gt%3B%26lt%3B%2Fdiv%26gt%3B%26lt%3Bdiv%26gt%3B%26amp%3Bnbsp%3B%2B%20void%20showAccountInfo()%26lt%3B%2Fdiv%26gt%3B%26lt%3Bdiv%26gt%3B%26lt%3Bbr%26gt%3B%26lt%3B%2Fdiv%26gt%3B%26lt%3Bdiv%26gt%3B%26amp%3Bnbsp%3B%2B%20double%20getRatingScore()%26lt%3B%2Fdiv%26gt%3B%26lt%3Bdiv%26gt%3B%26lt%3Bbr%26gt%3B%26lt%3B%2Fdiv%26gt%3B%26lt%3Bdiv%26gt%3B%26amp%3Bnbsp%3B%2B%20bool%20minusCredit(double%20creditPoint)%26lt%3B%2Fdiv%26gt%3B%26lt%3Bdiv%26gt%3B%26lt%3Bbr%26gt%3B%26lt%3B%2Fdiv%26gt%3B%26lt%3Bdiv%26gt%3B%26amp%3Bnbsp%3B%2B%20bool%20addCredit(double%20creditPoint)%26lt%3B%2Fdiv%26gt%3B%26lt%3Bdiv%26gt%3B%26lt%3Bbr%26gt%3B%26lt%3B%2Fdiv%26gt%3B%26lt%3Bdiv%26gt%3B%26amp%3Bnbsp%3B%2B%20bool%20createHouse(House%20*house)%26lt%3B%2Fdiv%26gt%3B%26lt%3Bdiv%26gt%3B%26lt%3Bbr%26gt%3B%26lt%3B%2Fdiv%26gt%3B%26lt%3Bdiv%26gt%3B%26amp%3Bnbsp%3B%2B%20Request%20requestHouse(Date%20*start%2C%20Date%20*end)%26amp%3Bnbsp%3B%26lt%3B%2Fdiv%26gt%3B%26lt%3Bdiv%26gt%3B%26lt%3Bbr%26gt%3B%26lt%3B%2Fdiv%26gt%3B%26lt%3Bdiv%26gt%3B%26amp%3Bnbsp%3B%2B%20void%20showAllAvailableHouse()%26lt%3B%2Fdiv%26gt%3B%26lt%3Bdiv%26gt%3B%26lt%3Bbr%26gt%3B%26lt%3B%2Fdiv%26gt%3B%26lt%3Bdiv%26gt%3B%26amp%3Bnbsp%3B%2B%20bool%20acceptRequest(int%20ID)%26lt%3B%2Fdiv%26gt%3B%26lt%3Bdiv%26gt%3B%26lt%3Bbr%26gt%3B%26lt%3B%2Fdiv%26gt%3B%26lt%3Bdiv%26gt%3B%26amp%3Bnbsp%3B%2B%20bool%20declineRequest(int%20ID)%26lt%3B%2Fdiv%26gt%3B%26lt%3Bdiv%26gt%3B%26lt%3Bbr%26gt%3B%26lt%3B%2Fdiv%26gt%3B%26lt%3Bdiv%26gt%3B%26amp%3Bnbsp%3B%2B%20void%20reviewHouse(House%20*occupyHouse%2C%20int%20score%2C%20string%20comment)%26lt%3B%2Fdiv%26gt%3B%26lt%3Bdiv%26gt%3B%26lt%3Bbr%26gt%3B%26lt%3B%2Fdiv%26gt%3B%26lt%3Bdiv%26gt%3B%26lt%3Bbr%26gt%3B%26lt%3B%2Fdiv%26gt%3B%26lt%3Bdiv%26gt%3B%26amp%3Bnbsp%3B%2B%20void%20viewTenant()%26lt%3B%2Fdiv%26gt%3B%26lt%3Bdiv%26gt%3B%26lt%3Bbr%26gt%3B%26lt%3B%2Fdiv%26gt%3B%26lt%3Bdiv%26gt%3B%26amp%3Bnbsp%3B%2B%20bool%20reviewTenant(int%20rateId%2C%20int%20score%2C%20string%20comment)%26lt%3B%2Fdiv%26gt%3B%26lt%3Bdiv%26gt%3B%26lt%3Bbr%26gt%3B%26lt%3B%2Fdiv%26gt%3B%26lt%3Bdiv%26gt%3B%26lt%3Bbr%26gt%3B%26lt%3B%2Fdiv%26gt%3B%26lt%3Bdiv%26gt%3B%26amp%3Bnbsp%3B%2B%20void%20showReview()%26lt%3B%2Fdiv%26gt%3B%26lt%3Bdiv%26gt%3B%26lt%3Bbr%26gt%3B%26lt%3B%2Fdiv%26gt%3B%26lt%3Bdiv%26gt%3B%26amp%3Bnbsp%3B%2B%20bool%20checkout(int%20leaveId)%26lt%3B%2Fdiv%26gt%3B%26lt%3Bdiv%26gt%3B%26lt%3Bbr%26gt%3B%26lt%3B%2Fdiv%26gt%3B%26lt%3Bdiv%26gt%3B%26amp%3Bnbsp%3B%2B%20bool%20viewMemberOccupyList()%26lt%3B%2Fdiv%26gt%3B%26lt%3Bdiv%26gt%3B%26lt%3Bbr%26gt%3B%26lt%3B%2Fdiv%26gt%3B%26lt%3Bdiv%26gt%3B%26amp%3Bnbsp%3B%2B%20bool%20viewUnratedList()%26lt%3B%2Fdiv%26gt%3B%26lt%3Bdiv%26gt%3B%26lt%3Bspan%20style%3D%26quot%3Bbackground-color%3A%20initial%3B%26quot%3B%26gt%3B%26lt%3Bbr%26gt%3B%26lt%3B%2Fspan%26gt%3B%26lt%3B%2Fdiv%26gt%3B%26lt%3Bdiv%26gt%3B%26lt%3Bspan%20style%3D%26quot%3Bbackground-color%3A%20initial%3B%26quot%3B%26gt%3B%26amp%3Bnbsp%3B%2B%26amp%3Bnbsp%3B%20void%20tenantLeaveHouse()%26lt%3B%2Fspan%26gt%3B%26lt%3Bbr%26gt%3B%26lt%3B%2Fdiv%26gt%3B%26lt%3Bdiv%26gt%3B%26lt%3Bbr%26gt%3B%26lt%3B%2Fdiv%26gt%3B%26lt%3Bdiv%26gt%3B%26amp%3Bnbsp%3B%2B%20void%20getHouseIndex(int%20houseID)%26lt%3B%2Fdiv%26gt%3B%26lt%3Bdiv%26gt%3B%26lt%3Bbr%26gt%3B%26lt%3B%2Fdiv%26gt%3B%26lt%3Bdiv%26gt%3B%26amp%3Bnbsp%3B%2B%20void%20cancelRequest()%26lt%3B%2Fdiv%26gt%3B%26lt%3Bdiv%26gt%3B%26amp%3Bnbsp%3B%26lt%3B%2Fdiv%26gt%3B%26lt%3Bdiv%26gt%3B%26amp%3Bnbsp%3B%2B%20friend%20class%20House%26lt%3B%2Fdiv%26gt%3B%26lt%3Bdiv%26gt%3B%26lt%3Bbr%26gt%3B%26lt%3B%2Fdiv%26gt%3B%26lt%3Bdiv%26gt%3B%26amp%3Bnbsp%3B%2B%20friend%20class%20System%26lt%3B%2Fdiv%26gt%3B%26lt%3Bdiv%26gt%3B%26lt%3Bbr%26gt%3B%26lt%3B%2Fdiv%26gt%3B%22%20style%3D%22text%3BstrokeColor%3Dnone%3BfillColor%3Dnone%3Balign%3Dleft%3BverticalAlign%3Dtop%3BspacingLeft%3D4%3BspacingRight%3D4%3Boverflow%3Dhidden%3Brotatable%3D0%3Bpoints%3D%5B%5B0%2C0.5%5D%2C%5B1%2C0.5%5D%5D%3BportConstraint%3Deastwest%3BfontColor%3Dnone%3Bhtml%3D1%3B%22%20vertex%3D%221%22%20parent%3D%222%22%3E%3CmxGeometry%20y%3D%22188%22%20width%3D%22390%22%20height%3D%22842%22%20as%3D%22geometry%22%2F%3E%3C%2FmxCell%3E%3C%2Froot%3E%3C%2FmxGraphModel%3E&lt;/span&gt;" style="text;strokeColor=none;fillColor=none;align=left;verticalAlign=top;spacingLeft=4;spacingRight=4;overflow=hidden;rotatable=0;points=[[0,0.5],[1,0.5]];portConstraint=eastwest;fontColor=none;html=1;" parent="14DXW3Pkvmna8Q2ftDXT-70" vertex="1">
          <mxGeometry y="26" width="390" height="254" as="geometry" />
        </mxCell>
        <mxCell id="14DXW3Pkvmna8Q2ftDXT-72" value="" style="line;strokeWidth=1;fillColor=none;align=left;verticalAlign=middle;spacingTop=-1;spacingLeft=3;spacingRight=3;rotatable=0;labelPosition=right;points=[];portConstraint=eastwest;strokeColor=inherit;fontColor=none;html=1;" parent="14DXW3Pkvmna8Q2ftDXT-70" vertex="1">
          <mxGeometry y="280" width="390" height="18" as="geometry" />
        </mxCell>
        <mxCell id="14DXW3Pkvmna8Q2ftDXT-73" value="&lt;div&gt;&amp;nbsp;+ double getRatingScore()&lt;/div&gt;&lt;div&gt;&lt;br&gt;&lt;/div&gt;&lt;div&gt;&amp;nbsp;+ void addRequestToHouseRequestList(Request *request)&lt;/div&gt;&lt;div&gt;&lt;br&gt;&lt;/div&gt;&lt;div&gt;&amp;nbsp;+ bool removeRequestFromHouseRequestList(Request *request)&lt;/div&gt;&lt;div&gt;&lt;br&gt;&lt;/div&gt;&lt;div&gt;&amp;nbsp;+ void addReviewToHouseReviewList(Review *review)&lt;/div&gt;&lt;div&gt;&lt;br&gt;&lt;/div&gt;&lt;div&gt;&amp;nbsp;+ void viewHouseInfo()&lt;/div&gt;&lt;div&gt;&lt;br&gt;&lt;/div&gt;&lt;div&gt;&amp;nbsp;+&amp;nbsp; void viewHouseReview()&lt;/div&gt;&lt;div&gt;&lt;br&gt;&lt;/div&gt;&lt;div&gt;&amp;nbsp;+&amp;nbsp; string viewHouseInfoByGuest()&lt;/div&gt;&lt;div&gt;&amp;nbsp; &amp;nbsp;&lt;/div&gt;&lt;div&gt;&amp;nbsp; &amp;nbsp; ~House()&lt;/div&gt;&lt;div&gt;&lt;br&gt;&lt;/div&gt;&lt;div&gt;&amp;nbsp; + friend class Member&lt;/div&gt;&lt;div&gt;&lt;br&gt;&lt;/div&gt;&lt;div&gt;&amp;nbsp; + friend class System&lt;/div&gt;" style="text;strokeColor=none;fillColor=none;align=left;verticalAlign=top;spacingLeft=4;spacingRight=4;overflow=hidden;rotatable=0;points=[[0,0.5],[1,0.5]];portConstraint=eastwest;fontColor=none;html=1;" parent="14DXW3Pkvmna8Q2ftDXT-70" vertex="1">
          <mxGeometry y="298" width="390" height="362" as="geometry" />
        </mxCell>
        <mxCell id="14DXW3Pkvmna8Q2ftDXT-75" value="&lt;span style=&quot;font-weight: 400;&quot;&gt;Date&lt;/span&gt;" style="swimlane;fontStyle=1;align=center;verticalAlign=top;childLayout=stackLayout;horizontal=1;startSize=26;horizontalStack=0;resizeParent=1;resizeParentMax=0;resizeLast=0;collapsible=1;marginBottom=0;fontColor=none;html=1;" parent="1" vertex="1">
          <mxGeometry x="1530" y="2010" width="280" height="280" as="geometry" />
        </mxCell>
        <mxCell id="14DXW3Pkvmna8Q2ftDXT-76" value="- date: int&lt;br style=&quot;border-color: var(--border-color);&quot;&gt;&lt;br style=&quot;border-color: var(--border-color);&quot;&gt;- month: int&lt;br&gt;&lt;br&gt;- year: int" style="text;strokeColor=none;fillColor=none;align=left;verticalAlign=top;spacingLeft=4;spacingRight=4;overflow=hidden;rotatable=0;points=[[0,0.5],[1,0.5]];portConstraint=eastwest;fontColor=none;html=1;" parent="14DXW3Pkvmna8Q2ftDXT-75" vertex="1">
          <mxGeometry y="26" width="280" height="94" as="geometry" />
        </mxCell>
        <mxCell id="14DXW3Pkvmna8Q2ftDXT-77" value="" style="line;strokeWidth=1;fillColor=none;align=left;verticalAlign=middle;spacingTop=-1;spacingLeft=3;spacingRight=3;rotatable=0;labelPosition=right;points=[];portConstraint=eastwest;strokeColor=inherit;fontColor=none;html=1;" parent="14DXW3Pkvmna8Q2ftDXT-75" vertex="1">
          <mxGeometry y="120" width="280" height="8" as="geometry" />
        </mxCell>
        <mxCell id="14DXW3Pkvmna8Q2ftDXT-78" value="+ Date (int date, int month, int year)&lt;br&gt;&lt;br&gt;+ int coutLeapYear()&lt;br&gt;&lt;br&gt;+ int countDate()&lt;br&gt;&lt;br&gt;+ string convertDateToString()&lt;br&gt;&lt;br&gt;+ friend class System&lt;br&gt;" style="text;strokeColor=none;fillColor=none;align=left;verticalAlign=top;spacingLeft=4;spacingRight=4;overflow=hidden;rotatable=0;points=[[0,0.5],[1,0.5]];portConstraint=eastwest;fontColor=none;html=1;" parent="14DXW3Pkvmna8Q2ftDXT-75" vertex="1">
          <mxGeometry y="128" width="280" height="152" as="geometry" />
        </mxCell>
        <mxCell id="MLoxchNlt-xzZ0AAmb1T-3" value="have" style="endArrow=diamondThin;endSize=16;endFill=0;html=1;rounded=0;fontColor=none;" edge="1" parent="1" source="14DXW3Pkvmna8Q2ftDXT-70" target="14DXW3Pkvmna8Q2ftDXT-41">
          <mxGeometry width="160" relative="1" as="geometry">
            <mxPoint x="1570" y="1030" as="sourcePoint" />
            <mxPoint x="1730" y="1030" as="targetPoint" />
          </mxGeometry>
        </mxCell>
        <mxCell id="MLoxchNlt-xzZ0AAmb1T-6" value="" style="endArrow=none;endSize=12;dashed=1;html=1;rounded=0;fontColor=none;endFill=0;" edge="1" parent="1" target="14DXW3Pkvmna8Q2ftDXT-54">
          <mxGeometry width="160" relative="1" as="geometry">
            <mxPoint x="1360" y="1630" as="sourcePoint" />
            <mxPoint x="1430" y="1730" as="targetPoint" />
          </mxGeometry>
        </mxCell>
        <mxCell id="MLoxchNlt-xzZ0AAmb1T-7" value="have" style="endArrow=diamondThin;endSize=16;endFill=1;html=1;rounded=0;fontColor=none;" edge="1" parent="1" source="14DXW3Pkvmna8Q2ftDXT-54" target="14DXW3Pkvmna8Q2ftDXT-70">
          <mxGeometry width="160" relative="1" as="geometry">
            <mxPoint x="1830" y="1320.1384931506848" as="sourcePoint" />
            <mxPoint x="1490" y="1220.001506849315" as="targetPoint" />
          </mxGeometry>
        </mxCell>
        <mxCell id="MLoxchNlt-xzZ0AAmb1T-8" value="have" style="endArrow=diamondThin;endSize=16;endFill=0;html=1;rounded=0;fontColor=none;" edge="1" parent="1" source="14DXW3Pkvmna8Q2ftDXT-54" target="14DXW3Pkvmna8Q2ftDXT-41">
          <mxGeometry width="160" relative="1" as="geometry">
            <mxPoint x="1619.9994852941177" y="1553.47" as="sourcePoint" />
            <mxPoint x="1707.38" y="1430.0024675324673" as="targetPoint" />
          </mxGeometry>
        </mxCell>
        <mxCell id="MLoxchNlt-xzZ0AAmb1T-9" value="have" style="endArrow=diamondThin;endSize=16;endFill=1;html=1;rounded=0;fontColor=none;" edge="1" parent="1" source="14DXW3Pkvmna8Q2ftDXT-58" target="14DXW3Pkvmna8Q2ftDXT-41">
          <mxGeometry width="160" relative="1" as="geometry">
            <mxPoint x="1724.090909090909" y="982.5" as="sourcePoint" />
            <mxPoint x="1640" y="797.5" as="targetPoint" />
          </mxGeometry>
        </mxCell>
        <mxCell id="MLoxchNlt-xzZ0AAmb1T-10" value="have" style="endArrow=diamondThin;endSize=16;endFill=0;html=1;rounded=0;fontColor=none;" edge="1" parent="1" source="14DXW3Pkvmna8Q2ftDXT-62">
          <mxGeometry width="160" relative="1" as="geometry">
            <mxPoint x="1850.0000000000005" y="930.1384931506848" as="sourcePoint" />
            <mxPoint x="1509.9999999999995" y="830.0015068493149" as="targetPoint" />
          </mxGeometry>
        </mxCell>
        <mxCell id="MLoxchNlt-xzZ0AAmb1T-11" value="have" style="endArrow=diamondThin;endSize=16;endFill=0;html=1;rounded=0;fontColor=none;" edge="1" parent="1" source="14DXW3Pkvmna8Q2ftDXT-54" target="14DXW3Pkvmna8Q2ftDXT-41">
          <mxGeometry width="160" relative="1" as="geometry">
            <mxPoint x="1734.090909090909" y="1510" as="sourcePoint" />
            <mxPoint x="1649.9999999999995" y="1324.9999999999995" as="targetPoint" />
          </mxGeometry>
        </mxCell>
        <mxCell id="MLoxchNlt-xzZ0AAmb1T-12" value="" style="endArrow=none;endSize=12;dashed=1;html=1;rounded=0;fontColor=none;endFill=0;" edge="1" parent="1" source="14DXW3Pkvmna8Q2ftDXT-58">
          <mxGeometry width="160" relative="1" as="geometry">
            <mxPoint x="1020.0000000000005" y="1620" as="sourcePoint" />
            <mxPoint x="1190" y="1580" as="targetPoint" />
          </mxGeometry>
        </mxCell>
        <mxCell id="MLoxchNlt-xzZ0AAmb1T-13" value="have" style="endArrow=diamondThin;endSize=16;endFill=1;html=1;rounded=0;fontColor=none;" edge="1" parent="1" source="14DXW3Pkvmna8Q2ftDXT-50" target="14DXW3Pkvmna8Q2ftDXT-70">
          <mxGeometry width="160" relative="1" as="geometry">
            <mxPoint x="2470.0000000000005" y="910.1384931506848" as="sourcePoint" />
            <mxPoint x="2129.9999999999995" y="810.0015068493149" as="targetPoint" />
          </mxGeometry>
        </mxCell>
        <mxCell id="MLoxchNlt-xzZ0AAmb1T-14" value="have" style="endArrow=diamondThin;endSize=16;endFill=0;html=1;rounded=0;fontColor=none;edgeStyle=orthogonalEdgeStyle;" edge="1" parent="1" source="14DXW3Pkvmna8Q2ftDXT-58" target="14DXW3Pkvmna8Q2ftDXT-73">
          <mxGeometry width="160" relative="1" as="geometry">
            <mxPoint x="1890" y="1970" as="sourcePoint" />
            <mxPoint x="1720" y="1410" as="targetPoint" />
            <Array as="points">
              <mxPoint x="850" y="1940" />
              <mxPoint x="2045" y="1940" />
            </Array>
          </mxGeometry>
        </mxCell>
        <mxCell id="MLoxchNlt-xzZ0AAmb1T-15" value="make" style="endArrow=diamondThin;endSize=16;endFill=0;html=1;rounded=0;fontColor=none;" edge="1" parent="1" source="14DXW3Pkvmna8Q2ftDXT-44" target="14DXW3Pkvmna8Q2ftDXT-58">
          <mxGeometry width="160" relative="1" as="geometry">
            <mxPoint x="1114.090909090909" y="1485" as="sourcePoint" />
            <mxPoint x="1030" y="1300.0000000000005" as="targetPoint" />
          </mxGeometry>
        </mxCell>
        <mxCell id="MLoxchNlt-xzZ0AAmb1T-16" value="have" style="endArrow=diamondThin;endSize=16;endFill=1;html=1;rounded=0;fontColor=none;" edge="1" parent="1" source="14DXW3Pkvmna8Q2ftDXT-62" target="14DXW3Pkvmna8Q2ftDXT-70">
          <mxGeometry width="160" relative="1" as="geometry">
            <mxPoint x="1580" y="1034.411505376344" as="sourcePoint" />
            <mxPoint x="1710" y="910.0029032258068" as="targetPoint" />
          </mxGeometry>
        </mxCell>
        <mxCell id="MLoxchNlt-xzZ0AAmb1T-17" value="have" style="endArrow=diamondThin;endSize=16;endFill=0;html=1;rounded=0;fontColor=none;edgeStyle=orthogonalEdgeStyle;" edge="1" parent="1" source="14DXW3Pkvmna8Q2ftDXT-41" target="14DXW3Pkvmna8Q2ftDXT-50">
          <mxGeometry width="160" relative="1" as="geometry">
            <mxPoint x="1560" y="280" as="sourcePoint" />
            <mxPoint x="1610" y="380" as="targetPoint" />
            <Array as="points">
              <mxPoint x="1315" y="230" />
            </Array>
          </mxGeometry>
        </mxCell>
        <mxCell id="MLoxchNlt-xzZ0AAmb1T-18" value="have" style="endArrow=diamondThin;endSize=16;endFill=0;html=1;rounded=0;fontColor=none;" edge="1" parent="1" source="14DXW3Pkvmna8Q2ftDXT-44" target="14DXW3Pkvmna8Q2ftDXT-54">
          <mxGeometry width="160" relative="1" as="geometry">
            <mxPoint x="1720" y="1456.4008438356163" as="sourcePoint" />
            <mxPoint x="1609.9999999999995" y="1540.0015068493149" as="targetPoint" />
          </mxGeometry>
        </mxCell>
        <mxCell id="MLoxchNlt-xzZ0AAmb1T-21" value="have" style="endArrow=diamondThin;endSize=16;endFill=0;html=1;rounded=0;fontColor=none;" edge="1" parent="1" source="14DXW3Pkvmna8Q2ftDXT-75" target="14DXW3Pkvmna8Q2ftDXT-54">
          <mxGeometry width="160" relative="1" as="geometry">
            <mxPoint x="860" y="1870" as="sourcePoint" />
            <mxPoint x="2055" y="1830" as="targetPoint" />
          </mxGeometry>
        </mxCell>
        <mxCell id="MLoxchNlt-xzZ0AAmb1T-22" value="have" style="endArrow=diamondThin;endSize=16;endFill=0;html=1;rounded=0;fontColor=none;" edge="1" parent="1" source="14DXW3Pkvmna8Q2ftDXT-75" target="14DXW3Pkvmna8Q2ftDXT-73">
          <mxGeometry width="160" relative="1" as="geometry">
            <mxPoint x="2192.804646464647" y="1951" as="sourcePoint" />
            <mxPoint x="2190.0016161616163" y="1840" as="targetPoint" />
          </mxGeometry>
        </mxCell>
        <mxCell id="MLoxchNlt-xzZ0AAmb1T-23" value="have" style="endArrow=diamondThin;endSize=16;endFill=0;html=1;rounded=0;fontColor=none;edgeStyle=orthogonalEdgeStyle;" edge="1" parent="1" source="14DXW3Pkvmna8Q2ftDXT-75" target="14DXW3Pkvmna8Q2ftDXT-50">
          <mxGeometry width="160" relative="1" as="geometry">
            <mxPoint x="2120" y="1910" as="sourcePoint" />
            <mxPoint x="2170.0016161616163" y="1788" as="targetPoint" />
            <Array as="points">
              <mxPoint x="2420" y="2150" />
              <mxPoint x="2420" y="270" />
            </Array>
          </mxGeometry>
        </mxCell>
        <mxCell id="MLoxchNlt-xzZ0AAmb1T-24" value="have" style="endArrow=diamondThin;endSize=16;endFill=0;html=1;rounded=0;fontColor=none;edgeStyle=orthogonalEdgeStyle;" edge="1" parent="1" source="14DXW3Pkvmna8Q2ftDXT-75" target="14DXW3Pkvmna8Q2ftDXT-62">
          <mxGeometry width="160" relative="1" as="geometry">
            <mxPoint x="1763" y="2418" as="sourcePoint" />
            <mxPoint x="2063" y="538" as="targetPoint" />
            <Array as="points">
              <mxPoint x="2373" y="2070" />
              <mxPoint x="2373" y="538" />
            </Array>
          </mxGeometry>
        </mxCell>
        <mxCell id="MLoxchNlt-xzZ0AAmb1T-25" value="" style="endArrow=none;endSize=16;endFill=0;html=1;rounded=0;fontColor=none;" edge="1" parent="1" source="14DXW3Pkvmna8Q2ftDXT-41" target="14DXW3Pkvmna8Q2ftDXT-10">
          <mxGeometry width="160" relative="1" as="geometry">
            <mxPoint x="1010" y="910.1384931506848" as="sourcePoint" />
            <mxPoint x="670" y="810.0015068493146" as="targetPoint" />
          </mxGeometry>
        </mxCell>
        <mxCell id="MLoxchNlt-xzZ0AAmb1T-26" value="" style="endArrow=none;endSize=16;endFill=0;html=1;rounded=0;fontColor=none;edgeStyle=orthogonalEdgeStyle;" edge="1" parent="1" source="14DXW3Pkvmna8Q2ftDXT-50" target="14DXW3Pkvmna8Q2ftDXT-10">
          <mxGeometry width="160" relative="1" as="geometry">
            <mxPoint x="1120" y="1129.9966666666664" as="sourcePoint" />
            <mxPoint x="610" y="1186.663333333333" as="targetPoint" />
            <Array as="points">
              <mxPoint x="2000" y="120" />
              <mxPoint x="325" y="120" />
            </Array>
          </mxGeometry>
        </mxCell>
        <mxCell id="MLoxchNlt-xzZ0AAmb1T-27" value="" style="endArrow=none;endSize=16;endFill=0;html=1;rounded=0;fontColor=none;" edge="1" parent="1" source="14DXW3Pkvmna8Q2ftDXT-58" target="14DXW3Pkvmna8Q2ftDXT-13">
          <mxGeometry width="160" relative="1" as="geometry">
            <mxPoint x="1130" y="1139.9966666666664" as="sourcePoint" />
            <mxPoint x="620" y="1196.663333333333" as="targetPoint" />
          </mxGeometry>
        </mxCell>
        <mxCell id="MLoxchNlt-xzZ0AAmb1T-28" value="" style="endArrow=none;endSize=16;endFill=0;html=1;rounded=0;fontColor=none;edgeStyle=orthogonalEdgeStyle;" edge="1" parent="1" source="14DXW3Pkvmna8Q2ftDXT-62" target="14DXW3Pkvmna8Q2ftDXT-10">
          <mxGeometry width="160" relative="1" as="geometry">
            <mxPoint x="1790" y="210" as="sourcePoint" />
            <mxPoint x="115" y="330" as="targetPoint" />
            <Array as="points">
              <mxPoint x="1790" y="190" />
              <mxPoint x="115" y="190" />
            </Array>
          </mxGeometry>
        </mxCell>
        <mxCell id="MLoxchNlt-xzZ0AAmb1T-29" value="" style="endArrow=none;endSize=16;endFill=0;html=1;rounded=0;fontColor=none;edgeStyle=orthogonalEdgeStyle;" edge="1" parent="1" source="14DXW3Pkvmna8Q2ftDXT-70" target="14DXW3Pkvmna8Q2ftDXT-10">
          <mxGeometry width="160" relative="1" as="geometry">
            <mxPoint x="1984.8571428571431" y="350.14" as="sourcePoint" />
            <mxPoint x="310.00000000000045" y="110.13999999999999" as="targetPoint" />
            <Array as="points">
              <mxPoint x="2170" y="40" />
              <mxPoint x="310" y="40" />
            </Array>
          </mxGeometry>
        </mxCell>
        <mxCell id="MLoxchNlt-xzZ0AAmb1T-30" value="" style="endArrow=none;endSize=16;endFill=0;html=1;rounded=0;fontColor=none;edgeStyle=orthogonalEdgeStyle;" edge="1" parent="1" source="14DXW3Pkvmna8Q2ftDXT-54" target="14DXW3Pkvmna8Q2ftDXT-10">
          <mxGeometry width="160" relative="1" as="geometry">
            <mxPoint x="1580.2828571428577" y="1030" as="sourcePoint" />
            <mxPoint x="-230" y="520" as="targetPoint" />
            <Array as="points">
              <mxPoint x="1600" y="190" />
              <mxPoint x="480" y="190" />
            </Array>
          </mxGeometry>
        </mxCell>
        <mxCell id="MLoxchNlt-xzZ0AAmb1T-31" value="" style="endArrow=none;endSize=16;endFill=0;html=1;rounded=0;fontColor=none;edgeStyle=orthogonalEdgeStyle;" edge="1" parent="1" source="14DXW3Pkvmna8Q2ftDXT-75" target="14DXW3Pkvmna8Q2ftDXT-13">
          <mxGeometry width="160" relative="1" as="geometry">
            <mxPoint x="719.9999999999995" y="1371.066666666667" as="sourcePoint" />
            <mxPoint x="619.9999999999995" y="1314.6857142857143" as="targetPoint" />
            <Array as="points">
              <mxPoint x="325" y="2150" />
            </Array>
          </mxGeometry>
        </mxCell>
      </root>
    </mxGraphModel>
  </diagram>
</mxfile>
